<svg xmlns="http://www.w3.org/2000/svg" width="100%" height="100%" viewBox="0 0 86 36">
  <g fill="none" fill-rule="evenodd">
    <path fill="#3D474D" fill-rule="nonzero" d="M47.044,14.912 L43.432,14.912 L43.432,20.932 C43.432,21.3053352 43.4413332,21.6739982 43.46,22.038 C43.4786668,22.4020018 43.5486661,22.7286652 43.67,23.018 C43.7913339,23.3073348 43.9779987,23.5406658 44.23,23.718 C44.4820013,23.8953342 44.8506642,23.984 45.336,23.984 C45.6346682,23.984 45.9426651,23.9560003 46.26,23.9 C46.5773349,23.8439997 46.8666654,23.7413341 47.128,23.592 L47.128,25.888 C46.8293318,26.0560008 46.4420024,26.1726663 45.966,26.238 C45.4899976,26.3033337 45.1213346,26.336 44.86,26.336 C43.8893285,26.336 43.1380027,26.200668 42.606,25.93 C42.0739973,25.659332 41.6820013,25.3093355 41.43,24.88 C41.1779987,24.4506645 41.0286669,23.9700027 40.982,23.438 C40.9353331,22.9059973 40.912,22.369336 40.912,21.828 L40.912,14.912 L38,14.912 L38,12.728 L40.912,12.728 L40.912,9.004 L43.432,9.004 L43.432,12.728 L47.044,12.728 L47.044,14.912 Z M49.076333,14.352 C49.7856699,13.6986634 50.606995,13.2086683 51.540333,12.882 C52.473671,12.5553317 53.406995,12.392 54.340333,12.392 C55.3110045,12.392 56.1463295,12.5133321 56.846333,12.756 C57.5463365,12.9986679 58.1203308,13.3253313 58.568333,13.736 C59.0163352,14.1466687 59.3476653,14.6179973 59.562333,15.15 C59.7770007,15.6820027 59.884333,16.2373304 59.884333,16.816 L59.884333,23.592 C59.884333,24.058669 59.8936662,24.487998 59.912333,24.88 C59.9309998,25.272002 59.9589995,25.6453316 59.996333,26 L57.756333,26 C57.7003327,25.3279966 57.672333,24.6560034 57.672333,23.984 L57.616333,23.984 C57.0563302,24.842671 56.3936702,25.4493316 55.628333,25.804 C54.8629958,26.1586684 53.976338,26.336 52.968333,26.336 C52.3523299,26.336 51.7643358,26.2520008 51.204333,26.084 C50.6443302,25.9159992 50.1543351,25.6640017 49.734333,25.328 C49.3143309,24.9919983 48.9830009,24.5766691 48.740333,24.082 C48.4976651,23.5873309 48.376333,23.0133366 48.376333,22.36 C48.376333,21.501329 48.5676644,20.7826696 48.950333,20.204 C49.3330016,19.6253304 49.855663,19.1540018 50.518333,18.79 C51.181003,18.4259982 51.9556619,18.1646675 52.842333,18.006 C53.7290041,17.8473325 54.676328,17.768 55.684333,17.768 L57.532333,17.768 L57.532333,17.208 C57.532333,16.8719983 57.4670003,16.5360017 57.336333,16.2 C57.2056657,15.8639983 57.0096676,15.560668 56.748333,15.29 C56.4869984,15.019332 56.160335,14.8046675 55.768333,14.646 C55.376331,14.4873325 54.909669,14.408 54.368333,14.408 C53.8829972,14.408 53.4583348,14.4546662 53.094333,14.548 C52.7303312,14.6413338 52.3990012,14.7579993 52.100333,14.898 C51.8016648,15.0380007 51.5310009,15.2013324 51.288333,15.388 C51.0456651,15.5746676 50.8123341,15.7519992 50.588333,15.92 L49.076333,14.352 Z M56.188333,19.616 C55.5909967,19.616 54.9796695,19.6486663 54.354333,19.714 C53.7289965,19.7793337 53.1596689,19.9053324 52.646333,20.092 C52.1329971,20.2786676 51.7130013,20.5399983 51.386333,20.876 C51.0596647,21.2120017 50.896333,21.6413307 50.896333,22.164 C50.896333,22.9293372 51.1529971,23.4799983 51.666333,23.816 C52.1796689,24.1520017 52.8749953,24.32 53.752333,24.32 C54.4430031,24.32 55.0309972,24.2033345 55.516333,23.97 C56.0016688,23.7366655 56.3936648,23.4333352 56.692333,23.06 C56.9910012,22.6866648 57.2056657,22.2713356 57.336333,21.814 C57.4670003,21.3566644 57.532333,20.9040022 57.532333,20.456 L57.532333,19.616 L56.188333,19.616 Z M69.336666,16.06 C69.0379978,15.6866648 68.6693349,15.3740013 68.230666,15.122 C67.7919971,14.8699987 67.2553358,14.744 66.620666,14.744 C66.0233297,14.744 65.5053349,14.8699987 65.066666,15.122 C64.6279971,15.3740013 64.408666,15.7426642 64.408666,16.228 C64.408666,16.620002 64.5346647,16.9373321 64.786666,17.18 C65.0386673,17.4226679 65.3373309,17.6186659 65.682666,17.768 C66.0280011,17.9173341 66.396664,18.029333 66.788666,18.104 C67.180668,18.178667 67.5166646,18.2439997 67.796666,18.3 C68.338002,18.4306673 68.8466636,18.5893324 69.322666,18.776 C69.7986684,18.9626676 70.2093309,19.2053318 70.554666,19.504 C70.9000011,19.8026682 71.170665,20.1666645 71.366666,20.596 C71.562667,21.0253355 71.660666,21.5479969 71.660666,22.164 C71.660666,22.9106704 71.5020009,23.5499973 71.184666,24.082 C70.8673311,24.6140027 70.4566685,25.0479983 69.952666,25.384 C69.4486635,25.7200017 68.8746692,25.9626659 68.230666,26.112 C67.5866628,26.2613341 66.9380026,26.336 66.284666,26.336 C65.1833272,26.336 64.2173368,26.1680017 63.386666,25.832 C62.5559952,25.4959983 61.8140026,24.8800045 61.160666,23.984 L63.064666,22.416 C63.4753347,22.8266687 63.9326635,23.1906651 64.436666,23.508 C64.9406685,23.8253349 65.5566624,23.984 66.284666,23.984 C66.6020009,23.984 66.9239977,23.9513337 67.250666,23.886 C67.5773343,23.8206663 67.8666647,23.7180007 68.118666,23.578 C68.3706673,23.4379993 68.5759985,23.2606677 68.734666,23.046 C68.8933335,22.8313323 68.972666,22.5840014 68.972666,22.304 C68.972666,21.9306648 68.8560005,21.6226679 68.622666,21.38 C68.3893315,21.1373321 68.1093343,20.9460007 67.782666,20.806 C67.4559977,20.6659993 67.1106678,20.5540004 66.746666,20.47 C66.3826642,20.3859996 66.0606674,20.3160003 65.780666,20.26 C65.23933,20.1293327 64.7260018,19.9800008 64.240666,19.812 C63.7553302,19.6439992 63.3260012,19.4200014 62.952666,19.14 C62.5793308,18.8599986 62.2806671,18.5053355 62.056666,18.076 C61.8326649,17.6466645 61.720666,17.1146698 61.720666,16.48 C61.720666,15.7893299 61.8653312,15.1873359 62.154666,14.674 C62.4440008,14.1606641 62.8266636,13.7360017 63.302666,13.4 C63.7786684,13.0639983 64.3199963,12.8120008 64.926666,12.644 C65.5333357,12.4759992 66.1446629,12.392 66.760666,12.392 C67.6566705,12.392 68.5153286,12.5599983 69.336666,12.896 C70.1580034,13.2320017 70.8113302,13.7919961 71.296666,14.576 L69.336666,16.06 Z M73.440999,4.832 L75.960999,4.832 L75.960999,18.496 L81.672999,12.756 L85.172999,12.756 L78.984999,18.776 L85.704999,26 L82.120999,26 L75.960999,19.112 L75.960999,26 L73.440999,26 L73.440999,4.832 Z"/>
    <path fill="#3D474D" d="M0.103704557,3.33964011 L1.09358565,3.33964011 C1.15086009,3.33964011 1.19729021,3.38607022 1.19729021,3.44334466 L1.19729021,3.89365166 C1.2527205,3.8153062 1.30815005,3.73696191 1.38020954,3.65861645 C1.45226904,3.58027099 1.53818483,3.51032074 1.63795952,3.44876359 C1.7377342,3.38720645 1.85136477,3.33684226 1.97885465,3.29766953 C2.10634452,3.2584968 2.24491839,3.23891073 2.39458041,3.23891073 C2.67727535,3.23891073 2.92809405,3.29766895 3.14704405,3.41518714 C3.36599405,3.53270533 3.53089695,3.717374 3.64175771,3.96919869 C3.78587669,3.70618179 3.96047977,3.51871511 4.16557217,3.40679302 C4.37066458,3.29487094 4.62286902,3.23891073 4.92219307,3.23891073 C5.19380193,3.23891073 5.42244881,3.2850779 5.60814058,3.37741362 C5.79383235,3.46974934 5.94072065,3.5956598 6.04880989,3.75514877 C6.15689913,3.91463774 6.2345005,4.10210442 6.28161632,4.31755444 C6.32873214,4.53300445 6.3522897,4.76384029 6.3522897,5.01006888 L6.3522897,7.31547516 C6.3522897,7.37274961 6.30585959,7.41917972 6.24858514,7.41917972 L5.20881696,7.41917972 C5.15154252,7.41917972 5.1051124,7.37274961 5.1051124,7.31547516 L5.1051124,5.04364534 C5.1051124,4.85337779 5.06492598,4.6896942 4.98455193,4.55258964 C4.90417788,4.41548509 4.7614468,4.34693384 4.55635439,4.34693384 C4.41223541,4.34693384 4.29167614,4.37071692 4.19467298,4.41828381 C4.09766981,4.4658507 4.02006845,4.53160394 3.96186655,4.6155455 C3.90366465,4.69948706 3.86209249,4.79741742 3.83714882,4.9093395 C3.81220515,5.02126159 3.7997335,5.13877802 3.7997335,5.26189231 L3.7997335,7.31547516 C3.7997335,7.37274961 3.75330339,7.41917972 3.69602894,7.41917972 L2.65626076,7.41917972 C2.59898631,7.41917972 2.5525562,7.37274961 2.5525562,7.31547516 L2.5525562,5.26189231 C2.5525562,5.18914295 2.54978472,5.09960663 2.54424169,4.99328065 C2.53869865,4.88695467 2.51929831,4.7862263 2.48604008,4.69109253 C2.45278185,4.59595876 2.39873804,4.51481646 2.32390703,4.44766321 C2.24907602,4.38050996 2.13960266,4.34693384 1.99548368,4.34693384 C1.83473558,4.34693384 1.70447614,4.37631294 1.60470146,4.43507204 C1.50492677,4.49383113 1.42871115,4.57217542 1.37605228,4.67010724 C1.32339342,4.76803907 1.28874996,4.87856047 1.27212084,5.00167476 C1.25549173,5.12478906 1.2471773,5.25349752 1.2471773,5.38780403 L1.2471773,7.31547516 C1.2471773,7.37274961 1.20074719,7.41917972 1.14347274,7.41917972 L0.103704557,7.41917972 C0.0464301116,7.41917972 2.08918844e-17,7.37274961 1.38777878e-17,7.31547516 L0,3.44334466 C1.84208665e-17,3.38607022 0.0464301116,3.33964011 0.103704557,3.33964011 Z M10.7410276,6.79948023 C10.6900458,6.85803924 10.6480969,6.9030308 10.6151809,6.93445493 C10.4544665,7.08788518 10.2684537,7.21308495 10.0571399,7.31005623 C9.75227281,7.44995884 9.43632439,7.51990909 9.10928515,7.51990909 C8.79887503,7.51990909 8.50648416,7.46954491 8.23210379,7.36881503 C7.95772341,7.26808515 7.71937635,7.12398763 7.51705547,6.93651814 C7.31473459,6.74904865 7.15537464,6.52380883 7.03897084,6.26079193 C6.92256704,5.99777503 6.86436602,5.70398396 6.86436602,5.37940991 C6.86436602,5.05483586 6.92256704,4.7610448 7.03897084,4.4980279 C7.15537464,4.235011 7.31473459,4.00977118 7.51705547,3.82230169 C7.71937635,3.63483219 7.95772341,3.49073467 8.23210379,3.39000479 C8.50648416,3.28927492 8.79887503,3.23891073 9.10928515,3.23891073 C9.39752312,3.23891073 9.65942774,3.28927492 9.89500685,3.39000479 C10.130586,3.49073467 10.3301323,3.63483219 10.493652,3.82230169 C10.6571716,4.00977118 10.7832738,4.235011 10.8719624,4.4980279 C10.960651,4.7610448 11.0049946,5.05483586 11.0049946,5.37940991 L11.0049946,5.63566055 C11.0049946,5.71202647 10.9430878,5.77393329 10.8667219,5.77393329 L8.11154331,5.77393329 C8.16143066,6.01456577 8.26951827,6.20622947 8.43580941,6.34893013 C8.60210055,6.49163079 8.80718988,6.56298005 9.05108355,6.56298005 C9.25617595,6.56298005 9.42939329,6.51681288 9.57074075,6.42447716 C9.65799274,6.36747949 9.73837958,6.3003538 9.81190213,6.22309924 C9.82992443,6.20416213 9.85236285,6.17824023 9.87921739,6.14533355 L9.87909053,6.14523003 C9.91415624,6.10226164 9.97679326,6.09442192 10.0213673,6.12742251 L10.7244644,6.64753712 C10.7706482,6.68172948 10.7803692,6.74688724 10.7461768,6.79307104 C10.7445456,6.79527444 10.7428278,6.7974125 10.7410276,6.79948023 Z M23.9458574,6.79948023 C23.8948756,6.85803924 23.8529267,6.9030308 23.8200107,6.93445493 C23.6592963,7.08788518 23.4732835,7.21308495 23.2619697,7.31005623 C22.9571026,7.44995884 22.6411542,7.51990909 22.314115,7.51990909 C22.0037048,7.51990909 21.711314,7.46954491 21.4369336,7.36881503 C21.1625532,7.26808515 20.9242062,7.12398763 20.7218853,6.93651814 C20.5195644,6.74904865 20.3602044,6.52380883 20.2438006,6.26079193 C20.1273968,5.99777503 20.0691958,5.70398396 20.0691958,5.37940991 C20.0691958,5.05483586 20.1273968,4.7610448 20.2438006,4.4980279 C20.3602044,4.235011 20.5195644,4.00977118 20.7218853,3.82230169 C20.9242062,3.63483219 21.1625532,3.49073467 21.4369336,3.39000479 C21.711314,3.28927492 22.0037048,3.23891073 22.314115,3.23891073 C22.6023529,3.23891073 22.8642575,3.28927492 23.0998367,3.39000479 C23.3354158,3.49073467 23.5349621,3.63483219 23.6984818,3.82230169 C23.8620014,4.00977118 23.9881036,4.235011 24.0767922,4.4980279 C24.1654808,4.7610448 24.2098245,5.05483586 24.2098245,5.37940991 L24.2098245,5.63566055 C24.2098245,5.71202647 24.1479176,5.77393329 24.0715517,5.77393329 L21.3163731,5.77393329 C21.3662605,6.01456577 21.4743481,6.20622947 21.6406392,6.34893013 C21.8069304,6.49163079 22.0120197,6.56298005 22.2559134,6.56298005 C22.4610058,6.56298005 22.6342231,6.51681288 22.7755706,6.42447716 C22.8628226,6.36747949 22.9432094,6.3003538 23.0167319,6.22309924 C23.0347542,6.20416213 23.0571927,6.17824023 23.0840472,6.14533355 L23.0839203,6.14523003 C23.1189861,6.10226164 23.1816231,6.09442192 23.2261971,6.12742251 L23.9292942,6.64753712 C23.975478,6.68172948 23.985199,6.74688724 23.9510067,6.79307104 C23.9493754,6.79527444 23.9476576,6.7974125 23.9458574,6.79948023 Z M9.75781735,4.91773362 C9.76336039,4.70508166 9.69407345,4.523211 9.54995446,4.37211618 C9.40583548,4.22102137 9.22014649,4.14547509 8.99288194,4.14547509 C8.85430599,4.14547509 8.73236098,4.16785917 8.62704326,4.21262801 C8.52172554,4.25739684 8.43165253,4.31475605 8.35682152,4.38470735 C8.2819905,4.45465866 8.22378948,4.53580095 8.18221669,4.62813667 C8.14064391,4.72047239 8.11708635,4.81700374 8.11154331,4.91773362 L9.75781735,4.91773362 Z M11.6374357,3.33964011 L12.6772039,3.33964011 C12.7344784,3.33964011 12.7809085,3.38607022 12.7809085,3.44334466 L12.7809085,7.31547516 C12.7809085,7.37274961 12.7344784,7.41917972 12.6772039,7.41917972 L11.6374357,7.41917972 C11.5801613,7.41917972 11.5337312,7.37274961 11.5337312,7.31547516 L11.5337312,3.44334466 C11.5337312,3.38607022 11.5801613,3.33964011 11.6374357,3.33964011 Z M12.1599787,2.96363316 C11.7581626,2.96363316 11.4324263,2.63446141 11.4324263,2.22840749 C11.4324263,1.82235356 11.7581626,1.49318182 12.1599787,1.49318182 C12.5617947,1.49318182 12.887531,1.82235356 12.887531,2.22840749 C12.887531,2.63446141 12.5617947,2.96363316 12.1599787,2.96363316 Z M15.7207921,4.53999847 C15.5378718,4.31055819 15.2967533,4.19583978 14.9974292,4.19583978 C14.8921115,4.19583978 14.7895669,4.22102187 14.6897922,4.27138681 C14.5900175,4.32175175 14.5401309,4.40849006 14.5401309,4.53160435 C14.5401309,4.63233423 14.5914032,4.7064815 14.6939494,4.75404839 C14.7964956,4.80161527 14.9267551,4.84358543 15.0847317,4.8799601 C15.2427082,4.91633478 15.4117684,4.95550692 15.5919171,4.99747771 C15.7720658,5.03944849 15.9411259,5.10520173 16.0991025,5.19473939 C16.2570791,5.28427706 16.3873385,5.4059905 16.4898847,5.55988337 C16.5924309,5.71377624 16.6437033,5.91942999 16.6437033,6.17685078 C16.6437033,6.43986768 16.586888,6.65671347 16.4732557,6.82739465 C16.3596234,6.99807583 16.2141209,7.13517833 16.0367437,7.23870626 C15.8593664,7.34223419 15.6598201,7.41498245 15.4380986,7.45695323 C15.216377,7.49892401 14.9974303,7.51990909 14.7812518,7.51990909 C14.4985569,7.51990909 14.2130947,7.47933794 13.9248568,7.39819443 C13.6366188,7.31705092 13.3927288,7.1729534 13.1931794,6.96589754 L13.9498003,6.11809198 C14.0662041,6.26359069 14.1950778,6.37411209 14.3364253,6.4496595 C14.4777727,6.52520691 14.6426756,6.56298005 14.8311389,6.56298005 C14.9752579,6.56298005 15.1055174,6.54199497 15.2219212,6.50002419 C15.338325,6.45805341 15.396526,6.38110813 15.396526,6.26918604 C15.396526,6.16286006 15.3452536,6.08311677 15.2427074,6.02995378 C15.1401612,5.97679079 15.0099018,5.93202263 14.8519252,5.89564795 C14.6939486,5.85927327 14.5248885,5.82010113 14.3447398,5.77813035 C14.1645911,5.73615957 13.9955309,5.67320434 13.8375544,5.58926277 C13.6795778,5.50532121 13.5493183,5.38640578 13.4467721,5.23251291 C13.3442259,5.07862004 13.2929536,4.8729663 13.2929536,4.6155455 C13.2929536,4.37491302 13.3414545,4.16786026 13.4384576,3.99438103 C13.5354608,3.8209018 13.6629487,3.67820328 13.8209253,3.5662812 C13.9789019,3.45435911 14.1604337,3.37181781 14.3655261,3.31865482 C14.5706185,3.26549183 14.7784793,3.23891073 14.9891147,3.23891073 C15.2551805,3.23891073 15.5240139,3.27808288 15.7956227,3.35642834 C16.0672316,3.43477379 16.2972642,3.5746743 16.4857275,3.77613406 L15.7207921,4.53999847 Z M19.6877764,4.34693384 L18.6939649,4.34693384 L18.6939649,5.70678037 C18.6939649,5.81870246 18.6995079,5.92082983 18.710594,6.01316555 C18.72168,6.10550127 18.7466233,6.18524456 18.7854246,6.25239781 C18.8242259,6.31955106 18.8838126,6.37131425 18.9641867,6.40768893 C19.0445607,6.44406361 19.1512626,6.46225067 19.2842955,6.46225067 C19.350812,6.46225067 19.4381135,6.45525565 19.5462027,6.44126539 C19.5791299,6.43700354 19.6140824,6.42797053 19.6510603,6.41416635 L19.6509039,6.41374753 C19.7047927,6.39363033 19.7647864,6.42100762 19.7849037,6.47489642 C19.7892533,6.48654813 19.7914809,6.49888472 19.7914809,6.51132184 L19.7915411,7.3160312 C19.7915411,7.36247464 19.7606798,7.40326185 19.7159856,7.41588783 C19.564084,7.45879954 19.4451309,7.48507918 19.3591262,7.49472675 C19.2094641,7.51151506 19.0625758,7.51990909 18.9184568,7.51990909 C18.7078214,7.51990909 18.513818,7.49752501 18.3364408,7.45275618 C18.1590636,7.40798734 18.0038608,7.33663808 17.8708279,7.23870626 C17.737795,7.14077443 17.6338646,7.01346497 17.5590336,6.85677405 C17.4842026,6.70008313 17.4467876,6.50981844 17.4467876,6.28597427 L17.4467876,4.34693384 L16.7522987,4.34693384 C16.6950243,4.34693384 16.6485942,4.30050373 16.6485942,4.24322928 L16.6485942,3.44334466 C16.6485942,3.38607022 16.6950243,3.33964011 16.7522987,3.33964011 L17.4467876,3.33964011 L17.4467876,2.23459219 C17.4467876,2.17731774 17.4932177,2.13088763 17.5504922,2.13088763 L18.5902604,2.13088763 C18.6475348,2.13088763 18.6939649,2.17731774 18.6939649,2.23459219 L18.6939649,3.33964011 L19.6877764,3.33964011 C19.7450508,3.33964011 19.7914809,3.38607022 19.7914809,3.44334466 L19.7914809,4.24322928 C19.7914809,4.30050373 19.7450508,4.34693384 19.6877764,4.34693384 Z M22.9475731,4.91773362 C22.9531162,4.70508166 22.8838292,4.523211 22.7397103,4.37211618 C22.5955913,4.22102137 22.4099023,4.14547509 22.1826377,4.14547509 C22.0440618,4.14547509 21.9221168,4.16785917 21.8167991,4.21262801 C21.7114813,4.25739684 21.6214083,4.31475605 21.5465773,4.38470735 C21.4717463,4.45465866 21.4135453,4.53580095 21.3719725,4.62813667 C21.3303997,4.72047239 21.3068421,4.81700374 21.3012991,4.91773362 L22.9475731,4.91773362 Z M24.8105313,3.33964011 L25.8502995,3.33964011 C25.9075739,3.33964011 25.954004,3.38607022 25.954004,3.44334466 L25.954004,3.99438103 L25.9706331,3.99438103 C26.103666,3.74255634 26.2616402,3.55369065 26.4445604,3.42777831 C26.6274807,3.30186596 26.8575133,3.23891073 27.1346652,3.23891073 C27.2067247,3.23891073 27.2787831,3.24170874 27.3508426,3.24730485 C27.3815179,3.24968708 27.4197268,3.25511159 27.4654691,3.26357839 L27.4654859,3.26348777 C27.5146895,3.27259523 27.550391,3.31551145 27.550391,3.36555081 L27.5505483,4.29591044 C27.5505483,4.35327175 27.5040477,4.39977227 27.4466864,4.39977227 C27.4382235,4.39977227 27.4297922,4.3987379 27.4215802,4.39669218 C27.3667174,4.38302504 27.3223519,4.37343402 27.2884838,4.36791912 C27.2025667,4.35392886 27.1124936,4.34693384 27.018262,4.34693384 C26.7799114,4.34693384 26.5914509,4.38050996 26.452875,4.44766321 C26.314299,4.51481646 26.2075971,4.6085498 26.1327661,4.72886604 C26.0579351,4.84918229 26.0094343,4.99327981 25.9872621,5.16116294 C25.96509,5.32904606 25.954004,5.51371474 25.954004,5.71517449 L25.954004,7.31547516 C25.954004,7.37274961 25.9075739,7.41917972 25.8502995,7.41917972 L24.8105313,7.41917972 C24.7532569,7.41917972 24.7068267,7.37274961 24.7068267,7.31547516 L24.7068267,3.44334466 C24.7068267,3.38607022 24.7532569,3.33964011 24.8105313,3.33964011 Z" opacity=".3" transform="translate(39)"/>
    <g transform="translate(0 2)">
      <path fill="#0AF" d="M19.9978604,1.05457478 C31.5962188,4.16759596 33.6583755,9.76840829 30.9202182,20.0046146 C28.182061,30.2408209 23.6004979,34.0584464 12.0021396,30.9454252 C0.403781249,27.832404 -1.65837547,22.2315917 1.07978177,11.9953854 C3.817939,1.75917906 8.3995021,-2.05844639 19.9978604,1.05457478 Z"/>
      <path fill="#FFF" d="M13.2658615,15.8779027 L13.2658615,1.0503247 C13.2658615,0.278879339 13.8912415,-0.346500693 14.6626869,-0.346500693 C15.4341323,-0.346500693 16.0595123,0.278879339 16.0595123,1.0503247 L16.0595123,17.2747281 C16.0595123,18.0461735 15.4341323,18.6715535 14.6626869,18.6715535 L8.13220717,18.6715535 C7.3607618,18.6715535 6.73538177,18.0461735 6.73538177,17.2747281 C6.73538177,16.5032827 7.3607618,15.8779027 8.13220717,15.8779027 L13.2658615,15.8779027 Z" transform="rotate(45 7.862 17.698)"/>
    </g>
  </g>
</svg>
